<svg xmlns="http://www.w3.org/2000/svg" viewBox="0 0 250 80">
  <path d="M226.17 40.74c0 13.47-44.96 31.12-104.13 31.12-59.16 0-103.13-14.4-103.13-27.87s43.97-27.64 103.13-27.64c59.17 0 104.13 10.92 104.13 24.39zM122.04 13.7c-29.94 0-57.04 2.73-77.06 7.29-10.01 2.28-18.23 4.97-24.45 8.31-3.1 1.67-5.74 3.5-7.83 5.83-2.1 2.33-3.69 5.43-3.69 8.86 0 3.43 1.6 6.53 3.7 8.86 2.08 2.33 4.72 4.16 7.82 5.83 6.22 3.34 14.44 6.03 24.45 8.3 20.02 4.57 47.12 7.3 77.06 7.3 29.95 0 57.04-2.73 77.06-7.3 10.01-2.27 18.24-4.96 24.45-8.3 3.1-1.67 5.74-3.5 7.83-5.83 2.1-2.33 3.69-5.43 3.69-8.86 0-3.43-1.6-6.53-3.69-8.86-2.1-2.33-4.73-4.16-7.83-5.83-6.21-3.34-14.44-6.03-24.45-8.31-20.02-4.56-47.11-7.3-77.06-7.3z" color="#000" paint-order="markers stroke fill" style="-inkscape-stroke:none"/>
  <path d="M237.52 47.54c0 7-9 13.32-23.3 17.77 16.3-4.3 26.77-10.77 26.77-17.98 0-4.26-3.93-9.08-10.27-12.5 0 .07 0 0 0 0 2.23 1.87 6.77 8.66 6.8 12.7z"/>
  <path fill="#fff" d="M122.04 16.34a364.18 364.18 0 0 0-21.42.64 327.11 327.11 0 0 0-19.65 1.8 271.92 271.92 0 0 0-17.56 2.76 192.15 192.15 0 0 0-15.12 3.58c-2.3.65-4.48 1.33-6.54 2.03-2.06.7-4 1.43-5.8 2.17a71.84 71.84 0 0 0-7.25 3.47 43.14 43.14 0 0 0-3.78 2.41 26.57 26.57 0 0 0-2.9 2.48 15.5 15.5 0 0 0-1.97 2.51 9.05 9.05 0 0 0-1 2.54 6.38 6.38 0 0 0 .37 3.8 11.81 11.81 0 0 0 1.5 2.53 20.47 20.47 0 0 0 4 3.75 34.39 34.39 0 0 0 3.78 2.43 71.93 71.93 0 0 0 7.24 3.5 113.68 113.68 0 0 0 12.35 4.24c2.3.66 4.71 1.29 7.24 1.9a237.21 237.21 0 0 0 25.44 4.52 298.3 298.3 0 0 0 19.65 1.81 343.2 343.2 0 0 0 32.34.45 287.85 287.85 0 0 0 20.66-1.52 261.35 261.35 0 0 0 18.79-2.79 218.64 218.64 0 0 0 16.56-3.8c2.55-.7 5-1.44 7.32-2.2a132.7 132.7 0 0 0 6.64-2.36c2.09-.81 4.06-1.64 5.9-2.49a75.7 75.7 0 0 0 7.36-3.89 47.03 47.03 0 0 0 3.85-2.66 29.44 29.44 0 0 0 2.96-2.67c.41-.45.79-.9 1.12-1.34a9.8 9.8 0 0 0 1.53-2.64 7.66 7.66 0 0 0 .52-2.56 6.13 6.13 0 0 0-.52-2.5 8.3 8.3 0 0 0-.64-1.22 14.25 14.25 0 0 0-2.02-2.38 19.01 19.01 0 0 0-2.95-2.29 32.86 32.86 0 0 0-3.85-2.19 72.9 72.9 0 0 0-7.36-3.06 103.4 103.4 0 0 0-5.9-1.88 174.7 174.7 0 0 0-13.96-3.3 279.74 279.74 0 0 0-25.7-3.65 369.5 369.5 0 0 0-19.77-1.43 442.42 442.42 0 0 0-21.46-.5z" paint-order="markers stroke fill"/>
  <path d="m138.81 65.56-1.67.44-1.25-3.46-6.9.11-1.58 4.72-3.76-2.44 6.8-15.03 2.65-.3 5.71 15.96zM134.23 58l-1.99-6.38-2.26 7.49 4.24-1.1zm15-3.8-3.87 6.85-1.29.03-1.42-5.7-2.04 4.36-2.4.82-1.1-7.9 1.4-.41 1.55 5.95 2.54-4.86 2.28-.32.36 6.27 2.87-5.74zm6.83 5.83-.01.33a8.77 8.77 0 0 1-3.78.61 3.69 3.69 0 0 1-.9-.16 2.08 2.08 0 0 1-.73-.33 1.56 1.56 0 0 1-.57-.63 1.74 1.74 0 0 1-.14-.84c.04-.55.36-1.02.93-1.42.6-.41 1.46-.72 2.6-.97a1.14 1.14 0 0 0-.43-.63 1.61 1.61 0 0 0-.8-.26 2.28 2.28 0 0 0-1.8.74l-.3-.33c.37-.5.82-.87 1.35-1.1a3.71 3.71 0 0 1 1.8-.29 2.39 2.39 0 0 1 1.41.55 3.66 3.66 0 0 1 .96 1.45 7.82 7.82 0 0 1 .4 1.57c.06.54.08 1.12.01 1.7zm-2.37-.61c.03-.36.03-.74.03-1.1-.02-.37-.03-.73-.1-1.1a12.02 12.02 0 0 0-1.06.29c-.31.11-.6.21-.84.34l.47 2.58a6 6 0 0 0 .85 0c.23-.02.43-.07.58-.15l.05-.43.02-.43zm11.54.28-3.35.1.62-3.53.2-1.19c.07-.53.04-.94-.09-1.22a.87.87 0 0 0-.73-.5 1.7 1.7 0 0 0-1.07.29c-.4.24-.82.63-1.3 1.15l-.89 4.37-1.55-.01.2-6.98 2.8-.22-.27 1.5a4.44 4.44 0 0 1 1.52-1.07 2.64 2.64 0 0 1 1.54-.2 2.1 2.1 0 0 1 1.55.98c.36.58.56 1.39.62 2.44zm7.94.45-.07.34a9.5 9.5 0 0 1-2.16.38 9.53 9.53 0 0 1-2.06-.08 4.7 4.7 0 0 1-1-.26 2.58 2.58 0 0 1-.75-.47 1.55 1.55 0 0 1-.55-.72 1.62 1.62 0 0 1-.08-.94c.1-.61.48-1.1 1.17-1.49a7.8 7.8 0 0 1 2.96-.8 1.28 1.28 0 0 0-.42-.75 1.58 1.58 0 0 0-.85-.36 2.47 2.47 0 0 0-1.11.06 2.66 2.66 0 0 0-.96.58l-.3-.4a3.9 3.9 0 0 1 1.62-1.1 4.1 4.1 0 0 1 2.02-.11 2.65 2.65 0 0 1 1.5.74 3.9 3.9 0 0 1 .9 1.68c.17.58.27 1.16.29 1.77a8.65 8.65 0 0 1-.15 1.93zm-2.56-.93a10 10 0 0 0 .13-1.22c.03-.4.03-.8.02-1.2a10.8 10.8 0 0 0-1.2.2 5.95 5.95 0 0 0-.96.3l.24 2.88a7.43 7.43 0 0 0 .94.08c.27 0 .48-.03.67-.1l.08-.46c.03-.17.04-.31.08-.48z"/>
  <path stroke="#000" stroke-linecap="round" stroke-linejoin="round" stroke-width="10" d="M74.87 13.52 50.65 67.13l-10.86 2.2-22.26-51.65v0l18.9-5.72 11 43.08 17.1-44.38Zm1.98 36.82 4.8-.06-.6-26.13-8.7-.81s4.57 26.96 4.5 27zm14.99-3.93c1.57.4 3.05.48 4.49.26 1.77-.27 3.4-1.04 4.94-2.22l-.64-1.22a7.05 7.05 0 0 1-5.97.78 5 5 0 0 1-2.2-1.44 3.52 3.52 0 0 1-.77-2.23c3.6.18 6.41-.07 8.52-.82 2.05-.72 3.37-1.9 3.95-3.5a4.82 4.82 0 0 0-.95-4.96 6.43 6.43 0 0 0-1.9-1.57 11.9 11.9 0 0 0-2.58-1.21c-3.8-1.27-7.56-1.86-11.1-.95-2.03 1.1-2.07 4.06-2.33 5.86-.2 1.66-.22 3.33-.08 5 .15 1.81.73 3.57 1.7 5.1a7.4 7.4 0 0 0 3.81 2.78c.37.13.74.24 1.1.34zm-.17-8.02c.1-1.14.34-2.24.58-3.33.3-1.08.6-2.22.98-3.28h0c.13-.45.3-.88.4-1.28l.49-1.24a4.3 4.3 0 0 1 1.84.02c.75.14 1.6.37 2.57.7l-.68 8.06c-.84.2-1.76.26-2.79.36-1.13.05-2.26.05-3.39 0zm39.75-9.28-.52-2.94-22.96 2.16.14 5.39s23.3-4.65 23.34-4.6zM121.4 45.8l.64-26.2-7.1-.8s1.83 26.96 1.75 27zm37.66-8.03-10.37.3c.92-5.31 1.53-8.94 1.9-10.93.3-1.94.55-3.17.6-3.68.26-1.64.16-2.91-.25-3.78a2.7 2.7 0 0 0-2.25-1.58c-.97-.1-2.1.15-3.32.9a20.13 20.13 0 0 0-4.03 3.59l-2.76 13.54-4.8-.05.6-21.61 8.7-.67-.83 4.65a13.75 13.75 0 0 1 4.7-3.32 8.17 8.17 0 0 1 4.76-.66 6.5 6.5 0 0 1 4.8 3.06c1.12 1.8 1.74 4.3 1.94 7.56zm14.99-16.22c-1.34 0-2.59.2-3.74.58a12.1 12.1 0 0 0-5 3.37l.92 1.28a8.23 8.23 0 0 1 2.96-1.8 7.65 7.65 0 0 1 3.43-.2 4.9 4.9 0 0 1 2.65 1.13 3.95 3.95 0 0 1 1.28 2.3c-3.93.47-7 1.28-9.15 2.5-2.14 1.19-3.32 2.7-3.62 4.6a5.03 5.03 0 0 0 .25 2.91 4.79 4.79 0 0 0 1.69 2.25 8.29 8.29 0 0 0 2.35 1.43c.92.36 1.94.66 3.06.82a29.52 29.52 0 0 0 6.39.25 29.4 29.4 0 0 0 6.7-1.17l.2-1.08a26.8 26.8 0 0 0 .46-5.97 21.41 21.41 0 0 0-.88-5.47 12.1 12.1 0 0 0-2.8-5.2 8.21 8.21 0 0 0-4.65-2.3 14.3 14.3 0 0 0-2.5-.23zm2.9 8.8c.05 1.23.05 2.51-.05 3.73a31 31 0 0 1-.4 3.78c-.11.51-.16.97-.26 1.5-.05.44-.15.96-.25 1.42-.57.2-1.23.3-2.05.3a23 23 0 0 1-2.91-.25l-.77-8.94a18.43 18.43 0 0 1 2.97-.92 33.48 33.48 0 0 1 3.73-.62zm52.38 17.95-9.28 1.81c.13-5.38.2-9.06.26-11.09.01-1.96.07-3.21.05-3.73.02-1.66-.24-2.9-.73-3.7a2.39 2.39 0 0 0-2.23-1.23c-.88.04-1.86.45-2.86 1.38-1 .93-2.03 2.3-3.14 4.13l-1.06-3.99c.99-1.6 2.64-3.15 4.34-4.22 1.24-.9 3.47-1.36 4.96-1.34a5.7 5.7 0 0 1 4.71 2.33c1.25 1.62 2.13 4 2.75 7.2zm-15.7.03-9.27 1.81c.12-5.39.18-9.07.25-11.1.01-1.95.08-3.2.05-3.72.02-1.66-.24-2.9-.72-3.7a2.39 2.39 0 0 0-2.23-1.24 4.6 4.6 0 0 0-2.86 1.39c-1 .93-2.04 2.3-3.15 4.13l-.68 13.8-4.32.65-2.33-21.47 7.73-1.93-.13 4.72c1-1.6 2.28-2.95 3.78-3.97a6.93 6.93 0 0 1 4.19-1.35 5.7 5.7 0 0 1 4.71 2.33c1.25 1.61 2.14 4 2.75 7.2z" paint-order="markers stroke fill"/>
  <path fill="#fadf3c" d="m229.33 48.3-9.28 1.8c.13-5.38.2-9.06.26-11.09.01-1.96.07-3.21.05-3.73.02-1.66-.24-2.9-.73-3.7a2.39 2.39 0 0 0-2.23-1.23c-.88.04-1.86.45-2.86 1.38-1 .93-2.03 2.3-3.14 4.13l-1.06-3.99c.99-1.6 2.64-3.15 4.34-4.22 1.24-.9 3.47-1.36 4.96-1.34a5.7 5.7 0 0 1 4.71 2.33c1.25 1.62 2.13 4 2.75 7.2zm-15.7.02-9.27 1.81c.12-5.39.18-9.07.25-11.1.01-1.95.08-3.2.05-3.72.02-1.66-.24-2.9-.72-3.7a2.39 2.39 0 0 0-2.23-1.24 4.6 4.6 0 0 0-2.86 1.39c-1 .93-2.04 2.3-3.15 4.13l-.68 13.8-4.32.65-2.33-21.47 7.73-1.93-.13 4.72c1-1.6 2.28-2.95 3.78-3.97a6.93 6.93 0 0 1 4.19-1.35 5.7 5.7 0 0 1 4.71 2.33c1.25 1.61 2.14 4 2.75 7.2zm-39.58-26.78c-1.34 0-2.59.2-3.74.58a12.1 12.1 0 0 0-5 3.37l.92 1.28a8.23 8.23 0 0 1 2.96-1.8 7.65 7.65 0 0 1 3.43-.2 4.9 4.9 0 0 1 2.65 1.13 3.95 3.95 0 0 1 1.28 2.3c-3.93.47-7 1.28-9.15 2.5-2.14 1.19-3.32 2.7-3.62 4.6a5.03 5.03 0 0 0 .25 2.91 4.79 4.79 0 0 0 1.69 2.25 8.29 8.29 0 0 0 2.35 1.43c.92.36 1.94.66 3.06.82a29.52 29.52 0 0 0 6.39.25 29.4 29.4 0 0 0 6.7-1.17l.2-1.08a26.8 26.8 0 0 0 .46-5.97 21.41 21.41 0 0 0-.88-5.47 12.1 12.1 0 0 0-2.8-5.2 8.21 8.21 0 0 0-4.65-2.3 14.3 14.3 0 0 0-2.5-.23zm2.9 8.8c.05 1.23.05 2.51-.05 3.73a31 31 0 0 1-.4 3.78c-.11.51-.16.97-.26 1.5-.05.44-.15.96-.25 1.42-.57.2-1.23.3-2.05.3a23 23 0 0 1-2.91-.25l-.77-8.94a18.43 18.43 0 0 1 2.97-.92 33.48 33.48 0 0 1 3.73-.62zm-17.89 7.42-10.37.3c.92-5.31 1.53-8.94 1.9-10.93.3-1.94.55-3.17.6-3.68.26-1.64.16-2.91-.25-3.78a2.7 2.7 0 0 0-2.25-1.58c-.97-.1-2.1.15-3.32.9a20.13 20.13 0 0 0-4.03 3.59l-2.76 13.54-4.8-.05.6-21.61 8.7-.67-.83 4.65a13.75 13.75 0 0 1 4.7-3.32 8.17 8.17 0 0 1 4.76-.66 6.5 6.5 0 0 1 4.8 3.06c1.12 1.8 1.74 4.3 1.94 7.56zm-27.64-8.65-.52-2.94-22.96 2.16.14 5.39s23.3-4.65 23.34-4.6zM121.4 45.8l.64-26.2-7.1-.8s1.83 26.96 1.75 27zm-29.56.6c1.57.41 3.05.49 4.49.27 1.77-.27 3.4-1.04 4.94-2.22l-.64-1.22a7.05 7.05 0 0 1-5.97.78 5 5 0 0 1-2.2-1.44 3.52 3.52 0 0 1-.77-2.23c3.6.18 6.41-.07 8.52-.82 2.05-.72 3.37-1.9 3.95-3.5a4.82 4.82 0 0 0-.95-4.96 6.43 6.43 0 0 0-1.9-1.57 11.9 11.9 0 0 0-2.58-1.21c-3.8-1.27-7.56-1.86-11.1-.95-2.03 1.1-2.07 4.06-2.33 5.86-.2 1.66-.22 3.33-.08 5 .15 1.81.73 3.57 1.7 5.1a7.4 7.4 0 0 0 3.81 2.78c.37.13.74.24 1.1.34zm-.17-8c.1-1.15.34-2.25.58-3.34.3-1.08.6-2.22.98-3.28.13-.45.3-.88.4-1.28l.49-1.24a4.3 4.3 0 0 1 1.84.02c.75.14 1.6.37 2.57.7l-.68 8.06c-.84.2-1.76.26-2.79.36-1.13.05-2.26.05-3.39 0zM76.85 50.34l4.8-.06-.6-26.13-8.7-.81s4.57 26.96 4.5 27zm-1.98-36.82L50.65 67.13l-10.86 2.2-22.26-51.65 18.9-5.72 11 43.08 17.1-44.38Z" paint-order="markers stroke fill"/>
</svg>
