<svg xmlns="http://www.w3.org/2000/svg" viewBox="0 0 250 120">
  <path fill="#100f0d" d="M231.65 56.16c2.16 3.13 3.32 6.42 3.33 9.82.09 20.44-18.48 36.9-93.93 42.26 63.3 2.54 101.07-13.91 102.24-33.76.38-6.37-3.88-12.63-11.64-18.32zM158.78 89.8a6.31 6.31 0 0 0 4.6 4.4c.05 0 .34.13 1.3.37.92.21 1.95.35 3.3.44 1.01.07 2.03.1 3.05.1 1.65 0 3.3-.1 4.96-.32 1.54-.17 3.04-.45 4.56-.95 1.58-.5 3.05-1.24 4.28-2.09l.18.08c.44.15 4.07 1.75 9.2 1.8a18.1 18.1 0 0 0 7.54-1.57 13.5 13.5 0 0 0 4.95-3.8 10.8 10.8 0 0 0 2.46-6.74c.05-3.53-2.05-6.9-4.76-8.83l-.53-.38.58-1.54c.28-.72.41-1.47.42-2.2a43.31 43.31 0 0 0 2.7 0l.2-.01c3.03-.16 6.11-.66 9.19-1.41a6.37 6.37 0 0 0 4.7-4.89l.26-1.28c.63-2.92.83-5.66.83-8.24v-.21c-.02-2.8-.4-5.49-1.1-8.06a20.08 20.08 0 0 0-4.78-9.1 16.33 16.33 0 0 0-8.9-4.77c-1.53-.27-3-.41-4.47-.41a19.97 19.97 0 0 0-12.23 4.12c-.36-.95-.8-1.88-1.33-2.8a14.08 14.08 0 0 0-10.1-6.93 15.9 15.9 0 0 0-7.27.4 6.3 6.3 0 0 0-4.43-1.48l-10.38.58a6.33 6.33 0 0 0-5.98 6.01l-.29 5.8-.58-.53a15.26 15.26 0 0 0-8.83-3.72 19.88 19.88 0 0 0-8.11.81 6.3 6.3 0 0 0-4.06-3.26l-1.7-1.38a6.37 6.37 0 0 0-9.52 1.82l-.26.46a6.37 6.37 0 0 0-6.97-5.21l-8.44.99a6.32 6.32 0 0 0-4.82 3.24l-3 5.45-2.92-8.18a6.32 6.32 0 0 0-7.7-3.96l-5.2 1.48a6.3 6.3 0 0 0-2.59 1.45l-3.18-9.53a6.35 6.35 0 0 0-6.62-4.3l-9.85.96a6.32 6.32 0 0 0-5.1 3.57l-10.47 21.9C20.54 43.82 7.1 53 6.7 63.76c-.24 6.39 4.16 12.55 12.04 18.06-2.22-3.07-4.16-7.62-4.25-11.02-.25-9.77 7.93-18.25 23.36-25.04L25.76 71.04a6.33 6.33 0 0 0 2.15 7.98l13.72 9.31a6.3 6.3 0 0 0 9.52-3.1l4.7-13.1 16.51.05 2.92 8.68A6.34 6.34 0 0 0 82.8 85l6.2-1.52a6.35 6.35 0 0 0 4.49-8.16l-3.07-9.2 8.81-2.9a6.35 6.35 0 0 0 3.31-2.52l.2.74c.07.29.16.56.26.84a19.95 19.95 0 0 0-7.39 15.27 16.7 16.7 0 0 0 6.05 12.94c4.04 3.38 9.62 5.06 16.3 5.06h.02c1.75 0 3.58-.1 5.5-.34a6.28 6.28 0 0 0 2.14-.65 6.3 6.3 0 0 0 3.2.67l5.44-.3a6.33 6.33 0 0 0 5.22-3.28c2.5 2 5.52 3.22 8.75 3.2 4.12.03 7.93-2 10.55-5.04"/>
  <path fill="#f9de05" fill-rule="evenodd" d="m87.48 77.32-6.2 1.52-4.36-12.97-25.51-.1-6.22 17.32-13.72-9.32L57.75 18.8l9.85-.96zM71.1 48.97 64.27 25.2l-8.93 27.58zm57.2-13.65-14.74 23.35-4.69 1.2-5.1-20.08-6.51 17.4-8.91 2.93L81.1 30l5.22-1.48 7.66 21.44 9.77-17.8 8.44-.99 1.08 21.03 10.95-19.47 3.98 3.23zm23.16 22.43-.09 1.22a36.64 36.64 0 0 1-7.17 1.74c-2.33.32-4.59.4-6.84.16a13.78 13.78 0 0 1-3.35-.61 9.05 9.05 0 0 1-2.65-1.34 6.11 6.11 0 0 1-2.03-2.3 6.63 6.63 0 0 1-.49-3.18c.23-2.01 1.43-3.75 3.6-5.18 2.22-1.42 5.42-2.57 9.64-3.4a4.22 4.22 0 0 0-1.53-2.35 5.45 5.45 0 0 0-2.97-.97c-1.28-.15-2.5 0-3.61.47a8.63 8.63 0 0 0-3.1 2.13l-1.07-1.3c1.44-1.8 3.12-3.1 5.09-3.98a13.81 13.81 0 0 1 6.66-.9 8.9 8.9 0 0 1 5.21 2.18 12.81 12.81 0 0 1 3.42 5.38 28.82 28.82 0 0 1 1.35 5.82c.2 2.03.22 4.16-.07 6.41zm-8.74-2.44c.16-1.4.18-2.74.21-4.14-.04-1.35-.07-2.63-.28-4.04-1.41.34-2.76.62-3.93 1.02-1.17.34-2.21.75-3.14 1.16l1.52 9.55c1.21.08 2.25.1 3.17.06a6.2 6.2 0 0 0 2.14-.44l.22-1.58c0-.55.08-1.1.1-1.59zm44.04 2.43-11.88 1.6c1.23-6.33 1.77-11.04 2.25-13.4.42-2.32.75-3.78.83-4.33.34-1.94.25-3.47-.22-4.57-.46-1.05-1.3-1.68-2.64-1.89-1.16-.21-2.5.13-4 .95a24.24 24.24 0 0 0-4.9 4.17l-3.08 14.74-6.28 1.18 1.27-25.79 10.39-.58-1.1 5.53a17.27 17.27 0 0 1 5.7-3.84 9.7 9.7 0 0 1 5.69-.68 7.66 7.66 0 0 1 5.66 3.84c1.3 2.1 1.96 5.17 2.13 9.08l.23 11.75zm28.97 1.92-.28 1.33c-2.75.68-5.45 1.1-8.02 1.24-2.62.07-5.12-.05-7.61-.52-1.34-.21-2.56-.6-3.64-1.06a9.8 9.8 0 0 1-2.78-1.7 6.12 6.12 0 0 1-1.95-2.79 6 6 0 0 1-.24-3.48c.42-2.25 1.86-4.05 4.45-5.4 2.6-1.41 6.27-2.31 10.98-2.77a4.57 4.57 0 0 0-1.47-2.71 5.93 5.93 0 0 0-3.14-1.47 8.4 8.4 0 0 0-4.1.22 9.64 9.64 0 0 0-3.58 2l-1.06-1.54a13.8 13.8 0 0 1 6.06-3.85 15 15 0 0 1 7.45-.33c2.2.41 4 1.36 5.5 2.92a13.9 13.9 0 0 1 3.22 6.3c.57 2.08.88 4.28.9 6.48a32.4 32.4 0 0 1-.7 7.13zm-9.39-3.62c.28-1.45.5-2.98.58-4.5.16-1.46.18-2.93.16-4.45-1.66.2-3.12.36-4.48.64a50.1 50.1 0 0 0-3.56 1.02l.7 10.7c1.34.2 2.5.35 3.47.43a8.9 8.9 0 0 0 2.45-.31c.13-.61.27-1.22.34-1.77.14-.6.2-1.15.34-1.76zm-89.55 7.58 1.03 5.14c-3.79.27-10.54 3.09-10.27 7.27.21 3.13 3.31 8.88 14.38 6.61l.8 6.27C93.4 92.4 98.65 63.9 116.8 63.62Zm48.09 24.43c.98.24 1.19.48 3.53.64 2.35.16 4.62.12 6.88-.2 1.22-.13 2.37-.36 3.33-.68a9.75 9.75 0 0 0 2.63-1.28 5.58 5.58 0 0 0 1.95-2.07c.38-.81.5-1.71.37-2.75-.3-1.71-1.56-3.14-3.78-4.26-2.29-1.1-6.54-2.1-10.8-2.62.21-1.96 0-10.66 0-10.66l-7.29 1.78zm4.41-10.46c1.43.23 2.8.4 3.98.7 1.19.23 2.25.52 3.2.83l-.99 7.22c-1.21.13-2.25.2-3.18.2a7.3 7.3 0 0 1-2.16-.27c-.1-.47-1-7.45-.85-8.68zM157 68.27c4.24 25.1-19.25 28.45-19.6 1.05l4.24.46c1.39 10.24 3.78 13.45 5.8 13.24 3.33-.34 5.3-8.5 4.74-13.7l4.85-1.09zm31.34 13.57c11.91 2.65 11.66-2.25 1.3-4.56-15.64-3.47-5.48-17.5 8.9-8.75l-1.35 3.55c-7.65-5.14-15.08.65-4.36 2.73 13.21 2.56 11.12 9.3 6.3 11.5-5.2 2.38-11.66-.32-11.66-.32zm-59.85 7.06 5.44-.3-.93-22.97-8.17-1.67 3.66 24.94"/>
  <path fill="#100f0d" d="M232.3 42.66a4.97 4.97 0 0 1 5.06 4.97c0 2.82-2.2 5-5.09 5a5 5 0 0 1-5.12-5 5.02 5.02 0 0 1 5.12-4.97zm-.06 1a3.86 3.86 0 0 0-3.81 3.97 3.85 3.85 0 0 0 3.87 3.97c2.18.03 3.79-1.76 3.79-3.97a3.84 3.84 0 0 0-3.82-3.97zm-.76 6.55h-1.15v-4.94a9.6 9.6 0 0 1 1.91-.18c.93 0 1.37.16 1.73.4.27.2.48.6.48 1.06 0 .57-.42.99-1.02 1.17v.06c.48.15.75.55.9 1.22.15.76.25 1.06.37 1.2h-1.25c-.15-.18-.24-.6-.39-1.18-.09-.54-.4-.78-1.03-.78h-.55zm.04-2.8h.54c.64 0 1.15-.2 1.15-.72 0-.45-.33-.75-1.06-.75-.3 0-.51.02-.63.06v1.42"/>
</svg>
