<svg xmlns="http://www.w3.org/2000/svg" viewBox="0 0 192.76 192.76">
  <g>
    <path d="M154.67 77.98a17.77 17.77 0 0 1 9.4-.46c4.75 1.07 8.02 4.19 9.91 8.63.1.26.2.51.3.82 6.34 3.37 9.97 7.3 9.97 11.5 0 7.1-10.47 13.48-26.77 17.72 14.3-4.39 23.3-10.62 23.3-17.52 0-2.25-.97-4.5-2.81-6.59a9.37 9.37 0 0 1 1.22 4.55c0 14.66-38.31 26.61-85.37 26.61-8.94 0-17.62-.45-25.75-1.22-.56.5-1.27.97-2.2 1.17l-5.1 1.33c-3.83 1.02-6.13-.46-7.3-3.73l-.26-.77a166.3 166.3 0 0 1-16.3-3.57l-3.02 8.99c-1.43 4.3-4.54 5.1-8.32 2.66l-10.22-6.6c-3.88-2.5-4.3-5.56-2.66-9.24l2.45-5.37c-4.29-3.16-6.64-6.64-6.64-10.27 0-6.28 7.05-12.05 18.8-16.6l4.5-10.06c1.58-3.48 3.52-5.67 8.17-6.19l3.43-.4c4.75-.57 7.6 1.99 8.83 5.41l1.59 4.34c1.43-.2 2.86-.46 4.29-.66l5.16-1.53c1.43-.41 2.55-.16 3.32.5a256.61 256.61 0 0 1 27.23-1.42c9.25 0 18.14.45 26.46 1.32a9.65 9.65 0 0 1 2.05-.4l5.52-.41c2.04-.16 3.83.1 5.36 1.02 4.75-1.43 9.91-.36 13.34 3.32.3.36.6.71.86 1.07 2.56.67 4.96 1.33 7.26 2.05zm21.05 4.6h-1.84v.3h.72v1.95h.4v-1.95h.72v-.3zm.97 0h-.61v2.25h.4v-1.8l.72 1.8h.26l.71-1.8h.06v1.8h.35v-2.25h-.61l-.61 1.63-.67-1.63z"/>
    <path fill="#fff" d="m18.57 99.28 5.41-12c-3.78 2.9-5.87 6.08-5.87 9.35 0 .92.15 1.78.46 2.65zm33.41 17.43-.92-2.5-8.53.1c2.96.86 6.13 1.68 9.45 2.4zm107.44-8.23a21.9 21.9 0 0 1-6.94-1.43 12.9 12.9 0 0 1-3.68-2.04c-.52.2-1.03.25-1.64.3l-14.25.46c-1.9.3-3.12-.36-3.68-2.04l-6.7-.1a5.74 5.74 0 0 1-3.47 3.52 31.54 31.54 0 0 1-5.93 1.63c-6.69 1.23-15.73.87-19.2-6.07a10.4 10.4 0 0 1-.87-2.97l-3.68 6.44c-1.28 2.3-2.66 3.27-5.62 3.37l-3.83.1c-2.56.06-4.1-.6-4.86-3.67l-.76-3.12c-.36 1.28-1.43 1.79-2.71 2.25l-5.67 1.94 2.86 7.92c.56 1.58.77 3.11.5 4.44 7.72.87 16 1.33 24.53 1.33 27.95 0 52.42-5.06 65.6-12.26zm-91.4-34.64 1.59 6.18 1.07-2.04c.97-1.79 2.65-3.07 5.41-3.42l7.82-1.13c2.6-.36 3.83 1.64 4.3 4.35 1.12-2.61 3.42-4.2 5.97-2.61l5.31 3.17a8.8 8.8 0 0 1 2.15 1.78 11.94 11.94 0 0 1 2.3-.71c4.03-.87 8.17-.51 11.55 1.74l.15-4.24c0-1.18.35-2.2.97-3.07a228.81 228.81 0 0 0-22.79-1.28c-9.04-.1-17.72.36-25.8 1.28z"/>
    <path fill="#fadf3c" d="m63.99 117.98-5.16 1.38-3.89-10.73-21.35.36-4.9 14.61-11.65-7.56L38.09 69.5l8.22-.92L64 117.98zm-14.2-23.4-6.14-19.77-7 23.2 13.13-3.43zm46.49-11.75-12.01 21.2-3.98.1-4.4-17.67-6.33 13.49-7.41 2.55-3.43-24.47 4.35-1.28 4.8 18.45 7.87-15.07 7.05-.98 1.12 19.42 8.9-17.78 3.47 2.04zm21.15 18.04-.05 1.02a27.15 27.15 0 0 1-11.71 1.89 11.43 11.43 0 0 1-2.8-.51 6.43 6.43 0 0 1-2.25-1.02 4.82 4.82 0 0 1-1.74-1.95 5.4 5.4 0 0 1-.46-2.6c.15-1.69 1.12-3.17 2.91-4.4 1.84-1.27 4.5-2.24 8.02-3a3.52 3.52 0 0 0-1.32-1.95 5 5 0 0 0-2.5-.82 7.05 7.05 0 0 0-5.57 2.3l-.93-1.02c1.18-1.53 2.56-2.7 4.2-3.42s3.46-1.02 5.56-.87a7.4 7.4 0 0 1 4.4 1.69 11.35 11.35 0 0 1 2.96 4.5 24.23 24.23 0 0 1 1.22 4.85c.21 1.68.26 3.47.06 5.3zm-7.36-1.9c.1-1.12.1-2.3.1-3.42-.05-1.12-.1-2.24-.3-3.37a37.23 37.23 0 0 0-3.28.87c-.97.36-1.84.66-2.6 1.07l1.43 7.97c1.02.06 1.9.06 2.66 0 .71-.05 1.33-.2 1.79-.46l.15-1.32c0-.41.05-.87.05-1.33zm35.76.88-10.37.3c.92-5.31 1.53-8.94 1.9-10.93.3-1.94.55-3.17.6-3.68.26-1.64.16-2.91-.25-3.78a2.7 2.7 0 0 0-2.25-1.58c-.97-.1-2.1.15-3.32.91s-2.55 1.95-4.03 3.58l-2.76 13.54-4.8-.05.6-21.61 8.7-.67-.83 4.65a13.75 13.75 0 0 1 4.7-3.32 8.17 8.17 0 0 1 4.76-.66 6.5 6.5 0 0 1 4.8 3.06c1.12 1.8 1.74 4.3 1.94 7.56l.61 12.68zm24.58 1.37-.2 1.08a29.4 29.4 0 0 1-6.7 1.17 29.52 29.52 0 0 1-6.39-.25c-1.12-.16-2.14-.46-3.06-.82s-1.69-.87-2.35-1.43a4.79 4.79 0 0 1-1.69-2.25 5.03 5.03 0 0 1-.25-2.91c.3-1.9 1.48-3.42 3.62-4.6 2.15-1.23 5.22-2.04 9.15-2.5a3.95 3.95 0 0 0-1.28-2.3 4.9 4.9 0 0 0-2.65-1.13 7.65 7.65 0 0 0-3.43.2 8.23 8.23 0 0 0-2.96 1.8L151.3 86a12.1 12.1 0 0 1 5-3.37c1.85-.62 3.94-.77 6.24-.36a8.21 8.21 0 0 1 4.65 2.3 12.1 12.1 0 0 1 2.8 5.21c.52 1.79.83 3.58.88 5.47a26.8 26.8 0 0 1-.46 5.97zm-7.92-2.86a31 31 0 0 0 .4-3.78c.1-1.22.1-2.5.06-3.73a33.48 33.48 0 0 0-3.73.62 18.43 18.43 0 0 0-2.97.92l.77 8.94a23 23 0 0 0 2.91.25c.82 0 1.48-.1 2.05-.3.1-.46.2-.98.25-1.43.1-.52.15-.98.26-1.49z"/>
  </g>
</svg>
