<svg xmlns="http://www.w3.org/2000/svg" viewBox="0 0 250 120">
  <path fill="#100f0d" fill-rule="evenodd" d="m136.87 86.35-2.2.54-1.54-4.59-9.03-.03-2.2 6.13-4.86-3.3 9.3-19.47 3.5-.33zm-5.8-10.03-2.41-8.41-3.16 9.76zm20.26-4.83-5.23 8.26-1.65.43-1.8-7.11-2.32 6.16-3.15 1.04-2.57-10.67 1.85-.52 2.71 7.59 3.46-6.3 3-.35.37 7.44 3.88-6.89 1.41 1.14zm8.2 7.94-.04.43a14 14 0 0 1-2.54.62c-.82.1-1.62.14-2.42.05-.43-.03-.84-.1-1.18-.21a3.2 3.2 0 0 1-.94-.48c-.32-.22-.58-.5-.72-.81-.15-.33-.2-.7-.17-1.13.08-.71.5-1.33 1.27-1.83.78-.5 1.92-.91 3.41-1.2a1.5 1.5 0 0 0-.54-.84c-.26-.2-.62-.31-1.05-.34a2.5 2.5 0 0 0-1.28.17 3 3 0 0 0-1.1.75l-.38-.46c.52-.64 1.1-1.1 1.8-1.41.7-.29 1.48-.4 2.37-.32.7.06 1.33.33 1.84.77.5.45.9 1.08 1.21 1.9.23.66.38 1.33.48 2.07.07.72.08 1.47-.03 2.27zm-3.1-.87c.05-.49.06-.97.07-1.46 0-.48-.02-.93-.1-1.43-.5.12-.97.22-1.39.36a9.2 9.2 0 0 0-1.1.4l.53 3.39c.43.03.8.04 1.12.02.3-.01.56-.07.76-.15l.08-.56c0-.2.03-.4.03-.57zm15.6.86-4.22.57c.44-2.24.63-3.9.8-4.75l.3-1.52c.12-.7.08-1.23-.08-1.63-.17-.37-.46-.59-.94-.66-.4-.08-.88.04-1.41.33-.52.32-1.1.8-1.74 1.48l-1.09 5.22-2.22.41.45-9.12 3.67-.2-.38 1.95a6.11 6.11 0 0 1 2.01-1.36 3.44 3.44 0 0 1 2.02-.24c.88.15 1.56.6 2 1.36.46.74.7 1.83.76 3.21l.08 4.16zm10.24.68-.1.47a12.62 12.62 0 0 1-5.53.25c-.47-.07-.9-.2-1.29-.36-.38-.16-.7-.37-.98-.6a2.17 2.17 0 0 1-.69-1 2.12 2.12 0 0 1-.08-1.23c.14-.8.65-1.43 1.57-1.9a10.2 10.2 0 0 1 3.89-.99 1.62 1.62 0 0 0-.52-.96 2.1 2.1 0 0 0-1.12-.52 2.9 2.9 0 0 0-1.44.08 3.4 3.4 0 0 0-1.27.7l-.38-.54a4.88 4.88 0 0 1 2.15-1.36 5.32 5.32 0 0 1 2.63-.12 3.5 3.5 0 0 1 1.95 1.03 5 5 0 0 1 1.14 2.23c.2.74.31 1.52.32 2.3 0 .82-.06 1.64-.25 2.52zm-3.32-1.28c.1-.51.18-1.05.2-1.6.06-.5.07-1.03.06-1.57-.58.08-1.1.13-1.58.23-.48.12-.9.24-1.26.36l.25 3.79a21 21 0 0 0 1.22.15c.35.01.63-.05.87-.1.05-.22.1-.44.12-.63l.12-.63zm-31.7 2.69.36 1.82c-1.34.09-3.73 1.09-3.63 2.57.07 1.1 1.17 3.14 5.09 2.34l.28 2.22c-10.38 1.24-8.52-8.86-2.1-8.95zm17.02 8.64c.35.09.42.17 1.25.23a11.64 11.64 0 0 0 3.62-.31c.36-.12.66-.27.93-.45.31-.2.56-.47.69-.74.13-.28.18-.6.13-.97-.1-.6-.55-1.11-1.34-1.5-.8-.4-2.31-.75-3.82-.93.07-.7 0-3.78 0-3.78l-2.58.63zm1.57-3.7c.5.08.99.14 1.4.25.42.08.8.18 1.14.3l-.35 2.55c-.43.05-.8.07-1.13.07-.3 0-.56-.04-.77-.1-.03-.16-.35-2.63-.3-3.07zm-4.36-3.3c1.5 8.89-6.82 10.07-6.94.37l1.5.17c.5 3.62 1.34 4.76 2.05 4.68 1.18-.12 1.88-3 1.68-4.84l1.72-.4zm11.1 4.8c4.21.94 4.13-.8.45-1.6-5.53-1.24-1.93-6.2 3.16-3.1l-.48 1.25c-2.71-1.82-5.34.23-1.54.97 4.67.9 3.93 3.3 2.22 4.07-1.84.84-4.12-.11-4.12-.11zm-21.2 2.5 1.93-.1-.33-8.13-2.89-.6 1.3 8.84"/>
  <path fill="#100f0d" d="M231.66 47.04c2.16 3.13 3.32 6.41 3.33 9.81.09 20.44-18.49 36.9-93.94 42.27 63.31 2.54 101.08-13.91 102.25-33.76.38-6.37-3.88-12.63-11.64-18.32zM18.34 72.96c-2.16-3.13-3.32-6.41-3.33-9.81-.09-20.44 18.49-36.9 93.94-42.27C45.64 18.34 7.87 34.79 6.7 54.64 6.32 61 10.58 67.27 18.34 72.96z"/>
  <g paint-order="markers stroke fill">
    <path fill="#100f0d" stroke="#100f0d" stroke-linecap="round" stroke-linejoin="round" stroke-width="10" d="m69.02 28.48-24.23 53.6-10.85 2.21-22.26-51.66h0l18.9-5.7 11 43.07 17.1-44.38ZM71 65.3l4.8-.07-.6-26.12-8.7-.81s4.57 26.96 4.5 27zm14.98-3.94c1.58.4 3.06.48 4.5.26 1.77-.27 3.4-1.04 4.94-2.21l-.64-1.23a7.05 7.05 0 0 1-5.97.78 5 5 0 0 1-2.2-1.44 3.52 3.52 0 0 1-.78-2.22c3.6.18 6.42-.07 8.53-.82 2.04-.73 3.36-1.9 3.95-3.5.29-.84.37-1.75.23-2.63a4.82 4.82 0 0 0-1.18-2.33 6.43 6.43 0 0 0-1.9-1.57c-.81-.51-1.68-.92-2.58-1.22-3.8-1.27-7.56-1.85-11.1-.94-2.04 1.09-2.08 4.06-2.33 5.85-.2 1.66-.23 3.34-.08 5 .15 1.82.73 3.57 1.7 5.11a7.4 7.4 0 0 0 3.81 2.78c.37.13.74.24 1.1.33zm-.16-8.01c.1-1.14.34-2.24.58-3.34.3-1.08.6-2.22.98-3.27v-.01c.12-.45.3-.88.4-1.27l.49-1.24a4.3 4.3 0 0 1 1.84.02c.75.14 1.6.37 2.57.69L92 53c-.84.2-1.76.26-2.79.36-1.13.05-2.26.04-3.39-.01zm39.75-9.28-.52-2.94-22.96 2.15.14 5.4s23.3-4.65 23.34-4.61zm-10.02 16.67.64-26.19-7.1-.8s1.83 26.96 1.75 27zm37.65-8.03-10.37.3c.92-5.3 1.53-8.94 1.9-10.93.3-1.94.55-3.17.6-3.68.26-1.64.16-2.9-.25-3.78a2.7 2.7 0 0 0-2.25-1.58c-.97-.1-2.1.15-3.32.91a20.13 20.13 0 0 0-4.03 3.58l-2.76 13.54-4.8-.05.6-21.6 8.7-.68-.83 4.65a13.75 13.75 0 0 1 4.7-3.32 8.17 8.17 0 0 1 4.76-.66 6.5 6.5 0 0 1 4.8 3.06c1.12 1.8 1.74 4.3 1.94 7.56zm15-16.22c-1.34 0-2.59.2-3.74.6a12.1 12.1 0 0 0-5 3.36l.92 1.28a8.23 8.23 0 0 1 2.95-1.8 7.65 7.65 0 0 1 3.43-.2 4.9 4.9 0 0 1 2.65 1.13 3.95 3.95 0 0 1 1.28 2.3c-3.93.46-7 1.27-9.14 2.5-2.14 1.18-3.33 2.7-3.63 4.6a5.03 5.03 0 0 0 .25 2.91 4.79 4.79 0 0 0 1.7 2.25 8.29 8.29 0 0 0 2.35 1.43c.92.36 1.93.66 3.05.82a29.52 29.52 0 0 0 6.4.25 29.4 29.4 0 0 0 6.7-1.17l.2-1.08a26.8 26.8 0 0 0 .45-5.97 21.41 21.41 0 0 0-.88-5.47 12.1 12.1 0 0 0-2.8-5.21 8.21 8.21 0 0 0-4.65-2.3 14.3 14.3 0 0 0-2.5-.23zm2.9 8.81c.04 1.23.05 2.51-.05 3.73a31 31 0 0 1-.4 3.78c-.12.5-.16.97-.26 1.49-.05.45-.15.97-.25 1.43-.57.2-1.24.3-2.06.3a23 23 0 0 1-2.9-.25l-.78-8.94a18.43 18.43 0 0 1 2.98-.92 33.48 33.48 0 0 1 3.72-.62zm52.37 17.95-9.27 1.8c.12-5.38.19-9.06.26-11.08.01-1.96.07-3.22.05-3.73.01-1.66-.24-2.9-.73-3.7a2.39 2.39 0 0 0-2.23-1.24c-.88.05-1.86.46-2.86 1.39-1 .93-2.03 2.3-3.14 4.13l-1.06-4a13.8 13.8 0 0 1 4.33-4.2c1.25-.91 3.48-1.37 4.96-1.35a5.7 5.7 0 0 1 4.72 2.33c1.24 1.61 2.13 4 2.74 7.2zm-15.7.02-9.27 1.82c.13-5.4.2-9.07.26-11.1.01-1.96.07-3.21.05-3.72.02-1.66-.24-2.9-.73-3.7a2.39 2.39 0 0 0-2.23-1.24c-.88.04-1.86.45-2.86 1.39-1 .93-2.03 2.3-3.14 4.13l-.68 13.8-4.32.65-2.33-21.47 7.73-1.93-.13 4.72c.99-1.6 2.28-2.96 3.78-3.97a6.93 6.93 0 0 1 4.19-1.35 5.7 5.7 0 0 1 4.71 2.32c1.25 1.62 2.14 4 2.75 7.2z"/>
    <path fill="#f9de05" d="m223.47 63.25-9.27 1.8c.12-5.38.19-9.06.26-11.08.01-1.96.07-3.22.05-3.73.01-1.66-.24-2.9-.73-3.7a2.39 2.39 0 0 0-2.23-1.24c-.88.05-1.86.46-2.86 1.39-1 .93-2.03 2.3-3.14 4.13l-1.06-4a13.8 13.8 0 0 1 4.33-4.2c1.25-.91 3.48-1.37 4.96-1.35a5.7 5.7 0 0 1 4.72 2.33c1.24 1.61 2.13 4 2.74 7.2zm-15.7.02-9.27 1.82c.13-5.4.2-9.07.26-11.1.01-1.96.07-3.21.05-3.72.02-1.66-.24-2.9-.73-3.7a2.39 2.39 0 0 0-2.23-1.24c-.88.04-1.86.45-2.86 1.39-1 .93-2.03 2.3-3.14 4.13l-.68 13.8-4.32.65-2.33-21.47 7.73-1.93-.13 4.72c.99-1.6 2.28-2.96 3.78-3.97a6.93 6.93 0 0 1 4.19-1.35 5.7 5.7 0 0 1 4.71 2.32c1.25 1.62 2.14 4 2.75 7.2zM168.2 36.5c-1.34-.01-2.59.2-3.74.58a12.1 12.1 0 0 0-5 3.37l.92 1.28a8.23 8.23 0 0 1 2.95-1.8 7.65 7.65 0 0 1 3.43-.2 4.9 4.9 0 0 1 2.65 1.13 3.95 3.95 0 0 1 1.28 2.3c-3.93.46-7 1.27-9.14 2.5-2.14 1.18-3.33 2.7-3.63 4.6a5.03 5.03 0 0 0 .25 2.91 4.79 4.79 0 0 0 1.7 2.25 8.29 8.29 0 0 0 2.35 1.43c.92.36 1.93.66 3.05.82a29.52 29.52 0 0 0 6.4.25 29.4 29.4 0 0 0 6.7-1.17l.2-1.08a26.8 26.8 0 0 0 .45-5.97 21.41 21.41 0 0 0-.88-5.47 12.1 12.1 0 0 0-2.8-5.21 8.21 8.21 0 0 0-4.65-2.3 14.3 14.3 0 0 0-2.5-.23zm2.9 8.8c.04 1.23.05 2.51-.05 3.73a31 31 0 0 1-.4 3.78c-.12.5-.16.97-.26 1.49-.05.45-.15.97-.25 1.43-.57.2-1.24.3-2.06.3a23 23 0 0 1-2.9-.25l-.78-8.94a18.43 18.43 0 0 1 2.98-.92 33.48 33.48 0 0 1 3.72-.62zm-17.9 7.41-10.37.3c.92-5.3 1.53-8.94 1.9-10.93.3-1.94.55-3.17.6-3.68.26-1.64.16-2.9-.25-3.78a2.7 2.7 0 0 0-2.25-1.58c-.97-.1-2.1.15-3.32.91a20.13 20.13 0 0 0-4.03 3.58l-2.76 13.54-4.8-.05.6-21.6 8.7-.68-.83 4.65a13.75 13.75 0 0 1 4.7-3.32 8.17 8.17 0 0 1 4.76-.66 6.5 6.5 0 0 1 4.8 3.06c1.12 1.8 1.74 4.3 1.94 7.56zm-27.63-8.64-.52-2.94-22.96 2.15.14 5.4s23.3-4.65 23.34-4.61zm-10.02 16.67.64-26.19-7.1-.8s1.83 26.96 1.75 27zm-29.57.62c1.58.4 3.06.48 4.5.26 1.77-.27 3.4-1.04 4.94-2.21l-.64-1.23a7.05 7.05 0 0 1-5.97.78 5 5 0 0 1-2.2-1.44 3.52 3.52 0 0 1-.78-2.22c3.6.18 6.42-.07 8.53-.82 2.04-.73 3.36-1.9 3.95-3.5.29-.84.37-1.75.23-2.63a4.82 4.82 0 0 0-1.18-2.33 6.43 6.43 0 0 0-1.9-1.57c-.81-.51-1.68-.92-2.58-1.22-3.8-1.27-7.56-1.85-11.1-.94-2.04 1.09-2.08 4.06-2.33 5.85-.2 1.66-.23 3.34-.08 5 .15 1.82.73 3.57 1.7 5.11a7.4 7.4 0 0 0 3.81 2.78c.37.13.74.24 1.1.33zm-.16-8.01c.1-1.14.34-2.24.58-3.34.3-1.08.6-2.22.98-3.27v-.01c.12-.45.3-.88.4-1.27l.49-1.24a4.3 4.3 0 0 1 1.84.02c.75.14 1.6.37 2.57.69L92 53c-.84.2-1.76.26-2.79.36-1.13.05-2.26.04-3.39-.01zM71 65.3l4.8-.07-.6-26.12-8.7-.81s4.57 26.96 4.5 27zm-1.98-36.82-24.23 53.6-10.85 2.21-22.26-51.66 18.9-5.7 11 43.07 17.1-44.38Z"/>
  </g>
</svg>
