<svg xmlns="http://www.w3.org/2000/svg" viewBox="0 0 190 80">
  <path d="M153.3 21.6a17.77 17.77 0 0 1 9.4-.46c4.75 1.07 8.02 4.2 9.9 8.63.1.26.2.51.3.82 6.34 3.37 9.97 7.3 9.97 11.5 0 7.1-10.47 13.48-26.77 17.72 14.3-4.39 23.3-10.62 23.3-17.52 0-2.25-.97-4.5-2.8-6.59a9.37 9.37 0 0 1 1.22 4.55c0 14.66-38.31 26.61-85.38 26.61-8.94 0-17.62-.45-25.75-1.22-.56.5-1.27.97-2.2 1.17l-5.1 1.33c-3.83 1.02-6.13-.46-7.3-3.73l-.26-.77a166.3 166.3 0 0 1-16.3-3.57l-3.02 9c-1.43 4.3-4.54 5.1-8.32 2.65l-10.22-6.6c-3.88-2.5-4.3-5.56-2.66-9.24l2.45-5.37c-4.29-3.16-6.63-6.64-6.63-10.27 0-6.28 7.04-12.05 18.8-16.6l4.5-10.06C32 10.1 33.95 7.91 38.6 7.4l3.42-.4c4.75-.57 7.6 2 8.83 5.41l1.6 4.34c1.42-.2 2.85-.46 4.28-.66l5.17-1.53c1.42-.4 2.54-.16 3.31.5a256.61 256.61 0 0 1 27.23-1.42c9.25 0 18.14.45 26.46 1.32a9.65 9.65 0 0 1 2.05-.4l5.52-.4c2.04-.17 3.83.1 5.36 1.01 4.75-1.43 9.91-.36 13.34 3.32.3.36.6.71.87 1.07 2.56.67 4.96 1.33 7.26 2.05zm21.04 4.6h-1.84v.3h.72v1.95h.4V26.5h.72zm.97 0h-.6v2.25h.4v-1.8l.71 1.8h.26l.71-1.8h.06v1.8h.35V26.2h-.6l-.62 1.63z"/>
  <path fill="#fff" d="m17.2 42.9 5.4-12c-3.78 2.9-5.87 6.08-5.87 9.35 0 .92.15 1.78.46 2.65zm33.4 17.43-.92-2.5-8.53.1c2.96.86 6.13 1.68 9.45 2.4zm107.44-8.23a21.9 21.9 0 0 1-6.94-1.43 12.9 12.9 0 0 1-3.68-2.04c-.52.2-1.03.25-1.64.3l-14.25.46c-1.9.3-3.12-.36-3.68-2.04l-6.7-.1a5.74 5.74 0 0 1-3.47 3.52 31.54 31.54 0 0 1-5.93 1.63c-6.69 1.23-15.73.87-19.2-6.07a10.4 10.4 0 0 1-.87-2.97L88 49.8c-1.28 2.3-2.66 3.27-5.62 3.37l-3.83.1c-2.56.06-4.1-.6-4.86-3.67l-.76-3.12c-.36 1.28-1.43 1.8-2.7 2.25l-5.68 1.94 2.86 7.92c.56 1.58.77 3.11.5 4.44 7.72.87 16 1.33 24.53 1.33 27.95 0 52.42-5.06 65.6-12.26zm-91.4-34.64 1.6 6.18 1.06-2.04c.97-1.79 2.65-3.07 5.41-3.42l7.82-1.13c2.6-.36 3.83 1.64 4.3 4.35 1.12-2.6 3.42-4.2 5.97-2.6l5.31 3.16a8.8 8.8 0 0 1 2.15 1.78 11.94 11.94 0 0 1 2.3-.7c4.03-.88 8.17-.52 11.55 1.73l.15-4.24c0-1.18.35-2.2.97-3.07a228.81 228.81 0 0 0-22.79-1.28c-9.04-.1-17.72.36-25.8 1.28z"/>
  <path fill="#fadf3c" d="m62.62 61.6-5.16 1.38-3.9-10.73-21.35.36-4.9 14.61-11.65-7.56 21.05-46.54 8.22-.92 17.7 49.4zm-14.2-23.4-6.14-19.77-7 23.2L48.4 38.2zM94.9 26.45l-12 21.2-3.99.1-4.4-17.67-6.33 13.5-7.4 2.54-3.44-24.47 4.35-1.28 4.8 18.45 7.87-15.07 7.05-.98 1.12 19.42 8.9-17.78zm21.15 18.04-.05 1.02a27.15 27.15 0 0 1-11.71 1.9 11.43 11.43 0 0 1-2.8-.52 6.43 6.43 0 0 1-2.25-1.02 4.82 4.82 0 0 1-1.74-1.95 5.4 5.4 0 0 1-.46-2.6c.15-1.69 1.12-3.17 2.9-4.4 1.85-1.27 4.5-2.24 8.03-3a3.52 3.52 0 0 0-1.32-1.95 5 5 0 0 0-2.5-.82 7.05 7.05 0 0 0-5.57 2.3l-.93-1.02a10.81 10.81 0 0 1 4.2-3.42 11.5 11.5 0 0 1 5.56-.87 7.4 7.4 0 0 1 4.4 1.7 11.35 11.35 0 0 1 2.96 4.5 24.23 24.23 0 0 1 1.22 4.84c.2 1.68.26 3.47.06 5.3zm-7.36-1.9c.1-1.12.1-2.3.1-3.42-.05-1.12-.1-2.24-.3-3.37a37.23 37.23 0 0 0-3.28.87c-.97.36-1.84.66-2.6 1.07l1.43 7.97c1.02.06 1.9.06 2.66 0 .7-.05 1.33-.2 1.79-.46l.15-1.32c0-.4.05-.87.05-1.33zm35.76.88-10.37.3c.92-5.3 1.53-8.94 1.9-10.93.3-1.94.55-3.17.6-3.68.26-1.64.16-2.9-.25-3.78a2.7 2.7 0 0 0-2.25-1.58c-.97-.1-2.1.15-3.32.91a20.13 20.13 0 0 0-4.03 3.58l-2.76 13.54-4.8-.05.6-21.6 8.7-.68-.83 4.65a13.75 13.75 0 0 1 4.7-3.32 8.17 8.17 0 0 1 4.76-.66 6.5 6.5 0 0 1 4.8 3.06c1.12 1.8 1.74 4.3 1.94 7.56zm24.58 1.37-.2 1.08a29.4 29.4 0 0 1-6.7 1.17 29.52 29.52 0 0 1-6.4-.25 13.69 13.69 0 0 1-3.05-.82 8.3 8.3 0 0 1-2.35-1.43 4.79 4.79 0 0 1-1.7-2.25 5.03 5.03 0 0 1-.24-2.9c.3-1.9 1.48-3.43 3.62-4.6 2.15-1.24 5.22-2.05 9.15-2.5a3.95 3.95 0 0 0-1.28-2.3 4.9 4.9 0 0 0-2.65-1.14 7.65 7.65 0 0 0-3.43.2 8.23 8.23 0 0 0-2.96 1.8l-.92-1.28a12.1 12.1 0 0 1 5-3.37c1.85-.62 3.94-.77 6.24-.36a8.21 8.21 0 0 1 4.65 2.3 12.1 12.1 0 0 1 2.8 5.21c.52 1.8.83 3.58.88 5.47a26.8 26.8 0 0 1-.46 5.97zm-7.92-2.86a31 31 0 0 0 .4-3.78c.1-1.22.1-2.5.06-3.73a33.48 33.48 0 0 0-3.73.62 18.43 18.43 0 0 0-2.97.92l.77 8.94a23 23 0 0 0 2.9.25c.83 0 1.49-.1 2.06-.3.1-.46.2-.98.25-1.43.1-.52.15-.98.26-1.49z"/>
  <path d="m141.2 57.56-2.68.52.08-3.19c0-.56.02-.93.01-1.07 0-.48-.07-.84-.2-1.07a.69.69 0 0 0-.65-.35c-.25 0-.54.13-.82.4a5.7 5.7 0 0 0-.9 1.18l-.31-1.14c.28-.47.76-.91 1.24-1.22.36-.26 1-.4 1.43-.38.52-.02 1.02.22 1.36.67.36.46.61 1.15.79 2.07zm-4.53 0-2.67.53.08-3.2c0-.56.02-.92.01-1.06 0-.48-.07-.84-.2-1.07a.69.69 0 0 0-.65-.36 1.4 1.4 0 0 0-.82.4 5.7 5.7 0 0 0-.9 1.2l-.2 3.96-1.25.2-.67-6.19 2.23-.55-.04 1.35c.29-.46.66-.85 1.09-1.14a2 2 0 0 1 1.2-.39c.53-.02 1.03.23 1.36.67.36.47.62 1.15.8 2.07zm-11.5-3.96c-.38 0-.74.07-1.07.18a3.48 3.48 0 0 0-1.44.97l.26.36a2.37 2.37 0 0 1 .85-.51 2.2 2.2 0 0 1 1-.06 1.41 1.41 0 0 1 .75.32 1.14 1.14 0 0 1 .37.67 7.09 7.09 0 0 0-2.63.72c-.62.34-.96.77-1.04 1.32a1.45 1.45 0 0 0 .07.84 1.38 1.38 0 0 0 .48.65 3.45 3.45 0 0 0 1.56.64 8.5 8.5 0 0 0 1.84.08 8.46 8.46 0 0 0 1.93-.34l.06-.31a7.71 7.71 0 0 0 .13-1.72 6.16 6.16 0 0 0-.25-1.58 3.48 3.48 0 0 0-.81-1.5 2.36 2.36 0 0 0-1.34-.66 4.12 4.12 0 0 0-.72-.06zm.84 2.54c.01.36.01.73-.02 1.08a8.92 8.92 0 0 1-.11 1.08l-.08.43c-.01.13-.04.28-.07.41-.16.06-.35.1-.59.1a6.62 6.62 0 0 1-.84-.08l-.22-2.57a5.3 5.3 0 0 1 .86-.27 9.64 9.64 0 0 1 1.07-.18zm-4.83 5.22-2.98.08.54-3.14.18-1.06c.07-.47.04-.84-.07-1.09a.78.78 0 0 0-.65-.45c-.28-.03-.6.04-.96.26a5.8 5.8 0 0 0-1.16 1.03l-.8 3.9-1.37-.02.17-6.22 2.5-.2-.24 1.35a3.96 3.96 0 0 1 1.36-.96 2.35 2.35 0 0 1 1.37-.19 1.87 1.87 0 0 1 1.38.88c.32.52.5 1.24.56 2.18zm-8.15-3.68-.15-.85-6.61.62.04 1.56s6.7-1.34 6.72-1.33zm-2.89 4.8.19-7.54-2.05-.23s.53 7.76.5 7.77zm-8.51-.84c.46.12.88.14 1.3.08.5-.08.98-.3 1.42-.64l-.18-.35c-.51.32-1.15.4-1.72.22a1.44 1.44 0 0 1-.64-.41 1.08 1.08 0 0 1-.22-.64 6.56 6.56 0 0 0 2.45-.24c.6-.2.97-.55 1.14-1 .09-.25.1-.51.07-.76a1.39 1.39 0 0 0-.34-.68 3.29 3.29 0 0 0-1.29-.8 5.64 5.64 0 0 0-3.2-.27c-.58.31-.6 1.17-.67 1.69-.05.47-.06.96-.02 1.44.04.52.21 1.02.49 1.47.27.38.65.66 1.1.8l.31.1zm-.04-2.3c.02-.33.1-.65.16-.96.09-.32.18-.64.29-.95l.11-.37.14-.35c.15-.04.33-.04.53 0 .22.04.46.1.74.2l-.2 2.32a7.85 7.85 0 0 1-1.77.1zm-4.52 3.43 1.38-.01-.17-7.52-2.5-.24s1.31 7.76 1.29 7.77z"/>
  <path d="m95.27 53.42-4.38 9.7-1.96.4-4.02-9.35 3.41-1.03 2 7.79 3.08-8.02z" paint-order="markers stroke fill"/>
</svg>
