<svg xmlns="http://www.w3.org/2000/svg" xml:space="preserve" viewBox="0 0 320 100">
  <g fill="#4e4840">
    <path d="M274.5 56.5h-.94v-1.58h.99c.52 0 1.12.1 1.12.77 0 .7-.6.82-1.16.82m.74.35c.7-.07 1.2-.52 1.2-1.24a1.2 1.2 0 0 0-.32-.8c-.35-.43-.88-.46-1.37-.46h-1.97v5.18h.77v-2.4h.42c1.06 0 1.2.36 1.34 1.27.07.35.14.78.28 1.13h.92a4.75 4.76 0 0 1-.36-1.16c-.1-.7-.1-1.2-.91-1.48"/>
    <path d="M274.44 60.73c-5.04 0-5.04-7.57 0-7.57a3.8 3.8 0 0 1 3.87 3.77 3.8 3.8 0 0 1-3.87 3.8m0-7.92a4.2 4.2 0 0 0-4.22 4.16 4.22 4.22 0 0 0 4.33 4.15c5.53-.04 5.46-8.36-.07-8.31M152 35.8a5.72 5.72 0 0 0-3.31.5l-10.41 16.93s-7.53-12.19-8-12.86c-.76-1.16-2.98-1.7-4.35-1.7a4.5 4.5 0 0 0-3.52 1.74l-9.28 13.03-8.52-15.18s-1.75-1.06-3.23-.6c-1.62.53-2.3 2.04-2.3 2.04l10.99 19.23h5.7l10.44-14.3 9.15 14.3h6.5l12.84-21.48s-1.1-1.34-2.7-1.66m31.65 18.88s-13.5.14-15.68 0c-1.62-.14-3.87-1.09-3.9-2.95-.04-2.65 4.88-3.3 9.84-3.18 3.37.14 6.7.88 9.8 2.19zm5.98-12.57c0-2.47-3-4.12-4.22-4.54-12.3-4.34-23.7-.79-23.7-.79s-1.27.96-.85 2.76c.2.8.7 1.5 1.37 1.97 0 0 6.8-1.52 11.57-1.34 3.54-.1 7.02.87 10 2.78v3.39s-4.3-2.11-9.5-2.11c-8.37 0-16 1.05-15.83 8.2.1 5.39 5.27 6.98 9 7.05 4.82.1 21.99 0 22.16 0 0-.18-.07-10.19 0-17.37zm36.94.5a18.17 18.17 0 0 0-11.12-4.06c-3.54-.3-7.1 0-10.55.88v-1.4s-1.1-.75-2.74-.75c-1.66 0-3.42.89-3.42.89l-.03 21.66h6.08l.1-15.01s4.65-1.69 10.32-1.2c4.32.4 7.66 2.82 7.73 5.6v10.61h5.98s.1-6.91.07-10.15c-.1-3.38-.63-5.42-2.42-7.05m29.54 14.03h-10.9c-2.4-.17-4.3-.6-4.3-2.65 0-1.93 5.04-1.75 7.85-1.65 3.77.1 7.39 1.76 7.39 1.76v2.54zm4.26-9.16c-.21-2-.21-2.82-2-3.77-9.3-4.72-18.8-2.36-18.96-2.36-1.13.66-.95 3.52.52 4.23.5-.04 3.45-.7 8.1-.42 2.79.12 5.5.92 7.9 2.35l.15 2.3s-3.03-1.52-8.16-1.66c-5.8-.15-11.75.95-11.75 5.84 0 5.04 3.4 6.7 7.98 6.81 4.58.1 16.22 0 16.22 0s.07-12.48 0-13.32z"/>
    <path d="M3.25 14.42 9.9 3.38l6.85 11.04h2.48C19.2 14.33 10.77.95 10.77.95A1.03 1.03 0 0 0 9.9.5c-.36 0-.69.18-.87.47C9.03.96.8 14.28.8 14.42Z" mask="url(#b)" transform="matrix(3.51752 0 0 3.52308 31.1 8.24)"/>
    <path d="m12.2 58.83.96-.5c10.9-5.56 67.47-33.64 153.43-33.1 90.93.63 128.82 25.36 139.82 32.83l.88.63c1.83 1.41 3.6.07 2.22-1.23a6.68 6.7 0 0 0-.88-.8C296.8 46.49 256.43 19.09 166 19.29c-81.2.17-138.42 28.84-153.97 37.58l-1.05.64c-2.11 1.16-.4 2.25 1.23 1.33M58.1 89.98 43.8 69.65h6.85l9.7 15.7-3.55-.1L65.68 68h6.47L58.42 89.98Zm20.28-20.33h5.77l-.02 20.33h-5.78zm27.7 20.23a19.5 19.53 0 0 1-7.58-1.33 11.86 11.88 0 0 1-4.9-3.72 9.2 9.21 0 0 1-1.68-5.45c0-1.94.64-3.7 1.92-5.3 1.29-1.59 3-2.86 5.16-3.81a17.62 17.65 0 0 1 7.2-1.43c3.4 0 6.22.76 8.46 2.29a11.21 11.23 0 0 1 4.53 6.3L98 83.16l-1.37-2.62 17.4-4.88-1.25.62a6.74 6.75 0 0 0-2.48-2.72 7.87 7.88 0 0 0-4.54-1.2c-1.57 0-2.98.3-4.22.91a7.04 7.05 0 0 0-2.92 2.39 5.96 5.97 0 0 0-1.06 3.48 6.1 6.11 0 0 0 1.12 3.64 7.8 7.81 0 0 0 3.04 2.43c1.33.57 2.82.85 4.48.85 1.12 0 2.2-.15 3.23-.47 1.08-.32 2.07-.73 2.98-1.24l2.67 3.3c-1.28.66-2.73 1.2-4.35 1.62a18.3 18.33 0 0 1-4.66.62zm22.87-20.13h14.57v3.47h-8.8v16.76h-5.77V73.22h-7.2v-3.48zm24.98-.1.5 4.82-.25-.77a8.55 8.55 0 0 1 4.04-3.48 14.82 14.82 0 0 1 6.46-1.33c2.44 0 4.43.55 5.96 1.66a5.11 5.11 0 0 1 2.43 4.26l.06 15.08h-5.84l-.06-13.5a3.47 3.47 0 0 0-1.25-2.63c-.74-.7-1.92-1.05-3.54-1.05-1.4-.02-2.8.3-4.04.95a7.42 7.42 0 0 0-2.86 2.63 7.42 7.42 0 0 0-1 3.86l.07 9.75h-5.78l-.06-20.25Zm40.2-.81c-2.28-.03-4.54.4-6.65 1.28-1.98.86-3.58 2.1-4.78 3.72a9.17 9.17 0 0 0-1.8 5.68 9.49 9.49 0 0 0 1.67 5.7 11 11 0 0 0 4.66 3.48 17.7 17.7 0 0 0 6.59 1.18c1.49 0 2.84-.16 4.04-.46a15.6 15.6 0 0 0 5.4-2.78c.18-.14.34-.3.5-.46v3.8h5.78V69.64h-5.34l-.42 3.16a10.96 10.96 0 0 0-3.56-2.68 13.23 13.23 0 0 0-6.1-1.28zm1.06 3.67c1.3-.01 2.6.2 3.85.62 1.1.35 2.1.92 2.98 1.68.8.65 1.4 1.5 1.74 2.47v3.88a5.93 5.93 0 0 1-1.61 2.71 7.7 7.7 0 0 1-2.86 1.72c-1.16.42-2.47.62-3.92.62-1.53 0-2.96-.3-4.28-.9a8.03 8.03 0 0 1-3.17-2.5 5.65 5.65 0 0 1-1.18-3.48 5.9 5.9 0 0 1 1.12-3.57 7.91 7.91 0 0 1 3.1-2.39c1.29-.58 2.69-.86 4.23-.86zm29.51-2.86.5 4.43-.25-.38a9.8 9.8 0 0 1 4.04-3.53c1.9-.89 3.99-1.32 6.09-1.28 1.45 0 2.73.17 3.85.52s2.03.86 2.74 1.53a4.24 4.24 0 0 1 1.42 2.38l-.3.14a9.84 9.84 0 0 1 4.1-3.34 13.12 13.12 0 0 1 5.59-1.23c2.52 0 4.5.55 5.96 1.66a5.18 5.18 0 0 1 2.3 4.26v15.17h-5.78v-13.6a3.81 3.81 0 0 0-1-2.53c-.57-.7-1.6-1.08-3.1-1.14-1.5 0-2.84.35-4.04 1.05a7.83 7.83 0 0 0-2.73 2.72 7.09 7.09 0 0 0-1.06 3.53V90h-5.78V76.37a3.71 3.71 0 0 0-1.05-2.54c-.62-.7-1.68-1.08-3.17-1.14a7.67 7.67 0 0 0-6.77 3.77 7.23 7.23 0 0 0-.94 3.58v9.93h-5.78V69.65Z"/>
  </g>
</svg>
