<svg xmlns="http://www.w3.org/2000/svg" viewBox="0 0 340 340">
  <path fill="#41ade0" d="M0 0h340v340H0z"/>
  <g fill="#fff">
    <path d="M284.5 165.89h-.94v-1.58h.99c.52 0 1.12.1 1.12.77 0 .7-.6.8-1.16.8m.74.36c.7-.07 1.2-.52 1.2-1.23a1.2 1.2 0 0 0-.32-.8c-.35-.43-.88-.46-1.37-.46h-1.97v5.17h.77v-2.4h.42c1.06 0 1.2.36 1.34 1.27.07.35.14.78.28 1.13h.92a4.75 4.75 0 0 1-.36-1.16c-.1-.7-.1-1.2-.91-1.48"/>
    <path d="M284.44 170.1c-5.04 0-5.04-7.55 0-7.55a3.8 3.8 0 0 1 3.87 3.76 3.8 3.8 0 0 1-3.87 3.8m0-7.91a4.2 4.2 0 0 0-4.22 4.15 4.22 4.22 0 0 0 4.33 4.15c5.53-.05 5.46-8.35-.07-8.3M162 145.2a5.73 5.73 0 0 0-3.31.5l-10.41 16.92s-7.53-12.17-8-12.84c-.76-1.16-2.98-1.7-4.35-1.7a4.5 4.5 0 0 0-3.52 1.74l-9.28 13-8.52-15.15s-1.75-1.05-3.23-.6c-1.62.53-2.3 2.04-2.3 2.04l10.99 19.2h5.7l10.44-14.27 9.15 14.28h6.5l12.84-21.46s-1.1-1.33-2.7-1.65m31.65 18.85s-13.5.14-15.68 0c-1.62-.14-3.87-1.1-3.9-2.95-.04-2.64 4.88-3.3 9.84-3.17 3.37.14 6.7.88 9.8 2.18zm5.98-12.55c0-2.47-3-4.12-4.22-4.54-12.3-4.33-23.7-.78-23.7-.78s-1.27.95-.85 2.75c.2.8.7 1.5 1.37 1.97 0 0 6.8-1.52 11.57-1.34 3.54-.1 7.02.87 10 2.78v3.38s-4.3-2.11-9.5-2.11c-8.37 0-16 1.05-15.83 8.2.1 5.37 5.27 6.96 9 7.03 4.82.1 21.99 0 22.16 0 0-.18-.07-10.17 0-17.34zm36.94.49a18.19 18.19 0 0 0-11.12-4.05c-3.54-.3-7.1 0-10.55.88v-1.4s-1.1-.74-2.74-.74c-1.66 0-3.42.88-3.42.88l-.03 21.63h6.08l.1-15s4.65-1.67 10.32-1.2c4.32.4 7.66 2.83 7.73 5.6v10.6h5.98s.1-6.9.07-10.13c-.1-3.38-.63-5.42-2.42-7.04m29.54 14h-10.9c-2.4-.17-4.3-.6-4.3-2.64 0-1.93 5.04-1.75 7.85-1.65 3.77.1 7.39 1.76 7.39 1.76v2.53zm4.26-9.14c-.21-2-.21-2.82-2-3.77-9.3-4.71-18.8-2.35-18.96-2.35-1.13.66-.95 3.5.52 4.22.5-.04 3.45-.7 8.1-.42 2.79.12 5.5.92 7.9 2.35l.15 2.29s-3.03-1.51-8.16-1.65c-5.8-.15-11.75.95-11.75 5.83 0 5.03 3.4 6.69 7.98 6.8 4.58.1 16.22 0 16.22 0s.07-12.46 0-13.3z"/>
    <path d="M3.25 14.42 9.9 3.38l6.85 11.04h2.48C19.2 14.33 10.77.95 10.77.95A1.03 1.03 0 0 0 9.9.5c-.36 0-.69.18-.87.47C9.03.96.8 14.28.8 14.42Z" mask="url(#b)" transform="translate(41.1 117.7) scale(3.51752)"/>
    <path d="m22.2 168.2.96-.48c10.9-5.56 67.47-33.6 153.43-33.06 90.93.63 128.82 25.32 139.82 32.78l.88.63c1.83 1.4 3.6.07 2.22-1.23a6.68 6.68 0 0 0-.88-.8c-11.82-10.15-52.2-37.51-142.63-37.31-81.2.17-138.42 28.8-153.97 37.52l-1.05.64c-2.11 1.16-.4 2.25 1.23 1.33"/>
  </g>
  <path fill="none" stroke="#fff" d="M20 182.56h300"/>
  <path fill="#fff" d="m77.67 210.77-9.33-13.27h4.46l6.34 10.25-2.32-.07 5.8-11.26h4.22l-8.96 14.35zm23.78-13.27h3.76l-.01 13.27h-3.77zm27.6 13.2a12.73 12.75 0 0 1-4.95-.87 7.74 7.75 0 0 1-3.2-2.42 6 6.01 0 0 1-1.1-3.56c0-1.27.42-2.42 1.26-3.46a8.8 8.8 0 0 1 3.36-2.49 11.5 11.52 0 0 1 4.7-.93c2.22 0 4.06.5 5.53 1.5a7.32 7.33 0 0 1 2.95 4.1l-13.82 3.75-.9-1.72 11.36-3.18-.81.4a4.4 4.4 0 0 0-1.62-1.77 5.14 5.15 0 0 0-2.97-.78c-1.02 0-1.94.2-2.75.6a4.6 4.6 0 0 0-1.9 1.55 3.89 3.9 0 0 0-.7 2.27 3.98 3.99 0 0 0 .73 2.38 5.1 5.1 0 0 0 1.99 1.59c.86.37 1.84.55 2.92.55.73 0 1.44-.1 2.1-.3a9 9 0 0 0 1.95-.82l1.75 2.16c-.84.43-1.79.78-2.84 1.05a11.95 11.96 0 0 1-3.04.41zm27.85-13.14h9.5v2.27h-5.74v10.94h-3.77v-10.94h-4.7v-2.27zm27.46-.06.33 3.14-.17-.5a5.58 5.58 0 0 1 2.64-2.27c1.32-.6 2.76-.9 4.22-.87 1.59 0 2.89.36 3.89 1.09a3.33 3.33 0 0 1 1.58 2.77l.04 9.85h-3.8l-.05-8.81c0-.67-.3-1.3-.82-1.72-.48-.45-1.25-.68-2.3-.68-.92-.02-1.83.2-2.64.62-.77.4-1.41.98-1.87 1.71a4.84 4.84 0 0 0-.65 2.52l.05 6.37h-3.78L181 197.5Zm35.76-.53c-1.49-.02-2.96.26-4.34.83a7.53 7.53 0 0 0-3.12 2.44 5.98 5.98 0 0 0-1.17 3.7 6.2 6.2 0 0 0 1.09 3.72 7.18 7.18 0 0 0 3.04 2.27c1.3.52 2.73.77 4.3.77.97 0 1.85-.1 2.64-.3a10.4 10.4 0 0 0 3.52-1.8c.12-.1.23-.2.33-.31v2.48h3.77v-13.28h-3.49l-.27 2.07a7.15 7.15 0 0 0-2.32-1.76 8.64 8.64 0 0 0-3.98-.83zm.7 2.4c.85-.01 1.7.12 2.5.4.72.23 1.38.6 1.95 1.1.52.42.91.98 1.14 1.6v2.54a3.87 3.87 0 0 1-1.05 1.77c-.54.5-1.17.9-1.87 1.13a7.6 7.6 0 0 1-5.36-.2 5.24 5.24 0 0 1-2.06-1.62 3.68 3.68 0 0 1-.77-2.27c-.02-.84.24-1.66.73-2.34a5.16 5.16 0 0 1 2.02-1.55 6.62 6.62 0 0 1 2.76-.56zm27.32-1.87.32 2.9-.16-.26a6.4 6.4 0 0 1 2.64-2.3 9.03 9.03 0 0 1 3.97-.84c.95 0 1.78.11 2.51.34.74.23 1.33.56 1.8 1 .47.4.8.95.92 1.56l-.2.09a6.43 6.43 0 0 1 2.68-2.19 8.57 8.57 0 0 1 3.65-.8c1.64 0 2.94.36 3.89 1.09a3.38 3.38 0 0 1 1.5 2.77v9.9h-3.77v-8.86c0-.62-.24-1.2-.65-1.66-.38-.45-1.05-.7-2.03-.74-.97 0-1.85.23-2.63.68a5.1 5.1 0 0 0-2.48 4.08v6.52h-3.77v-8.9a2.4 2.4 0 0 0-.69-1.65c-.4-.46-1.1-.7-2.07-.75a5 5 0 0 0-4.42 2.46c-.4.72-.61 1.52-.6 2.34v6.48h-3.78V197.5Z"/>
</svg>
