<svg xmlns="http://www.w3.org/2000/svg" viewBox="0 0 340 340">
  <circle cx="170" cy="170" r="170" fill="#41ade0"/>
  <g fill="#fff">
    <path d="M284.5 165.89h-.94v-1.58h.99c.52 0 1.12.1 1.12.77 0 .7-.6.8-1.16.8m.74.36c.7-.07 1.2-.52 1.2-1.23a1.2 1.2 0 0 0-.32-.8c-.35-.43-.88-.46-1.37-.46h-1.97v5.17h.77v-2.4h.42c1.06 0 1.2.36 1.34 1.27.07.35.14.78.28 1.13h.92a4.75 4.75 0 0 1-.36-1.16c-.1-.7-.1-1.2-.91-1.48"/>
    <path d="M284.44 170.1c-5.04 0-5.04-7.55 0-7.55a3.8 3.8 0 0 1 3.87 3.76 3.8 3.8 0 0 1-3.87 3.8m0-7.91a4.2 4.2 0 0 0-4.22 4.15 4.22 4.22 0 0 0 4.33 4.15c5.53-.05 5.46-8.35-.07-8.3M162 145.2a5.73 5.73 0 0 0-3.31.5l-10.41 16.92s-7.53-12.17-8-12.84c-.76-1.16-2.98-1.7-4.35-1.7a4.5 4.5 0 0 0-3.52 1.74l-9.28 13-8.52-15.15s-1.75-1.05-3.23-.6c-1.62.53-2.3 2.04-2.3 2.04l10.99 19.2h5.7l10.44-14.27 9.15 14.28h6.5l12.84-21.46s-1.1-1.33-2.7-1.65m31.65 18.85s-13.5.14-15.68 0c-1.62-.14-3.87-1.1-3.9-2.95-.04-2.64 4.88-3.3 9.84-3.17 3.37.14 6.7.88 9.8 2.18zm5.98-12.55c0-2.47-3-4.12-4.22-4.54-12.3-4.33-23.7-.78-23.7-.78s-1.27.95-.85 2.75c.2.8.7 1.5 1.37 1.97 0 0 6.8-1.52 11.57-1.34 3.54-.1 7.02.87 10 2.78v3.38s-4.3-2.11-9.5-2.11c-8.37 0-16 1.05-15.83 8.2.1 5.37 5.27 6.96 9 7.03 4.82.1 21.99 0 22.16 0 0-.18-.07-10.17 0-17.34zm36.94.49a18.19 18.19 0 0 0-11.12-4.05c-3.54-.3-7.1 0-10.55.88v-1.4s-1.1-.74-2.74-.74c-1.66 0-3.42.88-3.42.88l-.03 21.63h6.08l.1-15s4.65-1.67 10.32-1.2c4.32.4 7.66 2.83 7.73 5.6v10.6h5.98s.1-6.9.07-10.13c-.1-3.38-.63-5.42-2.42-7.04m29.54 14h-10.9c-2.4-.17-4.3-.6-4.3-2.64 0-1.93 5.04-1.75 7.85-1.65 3.77.1 7.39 1.76 7.39 1.76v2.53zm4.26-9.14c-.21-2-.21-2.82-2-3.77-9.3-4.71-18.8-2.35-18.96-2.35-1.13.66-.95 3.5.52 4.22.5-.04 3.45-.7 8.1-.42 2.79.12 5.5.92 7.9 2.35l.15 2.29s-3.03-1.51-8.16-1.65c-5.8-.15-11.75.95-11.75 5.83 0 5.03 3.4 6.69 7.98 6.8 4.58.1 16.22 0 16.22 0s.07-12.46 0-13.3z"/>
    <path d="M3.25 14.42 9.9 3.38l6.85 11.04h2.48C19.2 14.33 10.77.95 10.77.95A1.03 1.03 0 0 0 9.9.5c-.36 0-.69.18-.87.47C9.03.96.8 14.28.8 14.42Z" mask="url(#b)" transform="translate(41.1 117.7) scale(3.51752)"/>
    <path d="m22.2 168.2.96-.48c10.9-5.56 67.47-33.6 153.43-33.06 90.93.63 128.82 25.32 139.82 32.78l.88.63c1.83 1.4 3.6.07 2.22-1.23a6.68 6.68 0 0 0-.88-.8c-11.82-10.15-52.2-37.51-142.63-37.31-81.2.17-138.42 28.8-153.97 37.52l-1.05.64c-2.11 1.16-.4 2.25 1.23 1.33"/>
  </g>
  <path fill="#fff" d="m68.1 218.37-14.3-20.3h6.85l9.7 15.68-3.55-.1 8.88-17.23h6.47l-13.73 21.95Zm20.28-20.3h5.77l-.02 20.3h-5.78zm27.7 20.2a19.5 19.5 0 0 1-7.58-1.33 11.86 11.86 0 0 1-4.9-3.71 9.2 9.2 0 0 1-1.68-5.44c0-1.94.64-3.7 1.92-5.3 1.29-1.58 3-2.85 5.16-3.8a17.62 17.62 0 0 1 7.2-1.43c3.4 0 6.22.76 8.46 2.29a11.21 11.21 0 0 1 4.53 6.29L108 211.56l-1.37-2.62 17.4-4.87-1.25.62a6.74 6.74 0 0 0-2.48-2.71 7.87 7.87 0 0 0-4.54-1.2c-1.57 0-2.98.3-4.22.9a7.04 7.04 0 0 0-2.92 2.39 5.96 5.96 0 0 0-1.06 3.48 6.1 6.1 0 0 0 1.12 3.63 7.8 7.8 0 0 0 3.04 2.43c1.33.57 2.82.85 4.48.85 1.12 0 2.2-.15 3.23-.47 1.08-.32 2.07-.73 2.98-1.24l2.67 3.29c-1.28.66-2.73 1.2-4.35 1.62a18.3 18.3 0 0 1-4.66.62zm22.87-20.1h14.57v3.47h-8.8v16.73h-5.77v-16.73h-7.2v-3.48zm24.98-.1.5 4.8-.25-.75a8.55 8.55 0 0 1 4.04-3.48 14.84 14.84 0 0 1 6.46-1.33c2.44 0 4.43.55 5.96 1.66a5.1 5.1 0 0 1 2.43 4.25l.06 15.06h-5.84l-.06-13.48a3.46 3.46 0 0 0-1.25-2.62c-.74-.7-1.92-1.05-3.54-1.05a8.5 8.5 0 0 0-4.04.95 7.42 7.42 0 0 0-2.86 2.62 7.4 7.4 0 0 0-1 3.86l.07 9.73h-5.78l-.06-20.22Zm40.2-.81a16.9 16.9 0 0 0-6.65 1.28c-1.98.86-3.58 2.1-4.78 3.72a9.14 9.14 0 0 0-1.8 5.67 9.46 9.46 0 0 0 1.67 5.68 11 11 0 0 0 4.66 3.48c1.99.79 4.19 1.18 6.59 1.18 1.49 0 2.84-.16 4.04-.46 1.96-.57 3.8-1.5 5.4-2.77.17-.15.34-.3.5-.47v3.8h5.78v-20.31h-5.34l-.42 3.16a10.95 10.95 0 0 0-3.56-2.68 13.25 13.25 0 0 0-6.1-1.28zm1.06 3.67c1.3-.02 2.6.2 3.85.62 1.1.35 2.1.91 2.98 1.67.8.65 1.4 1.5 1.74 2.47v3.87a5.92 5.92 0 0 1-1.61 2.7 7.7 7.7 0 0 1-2.86 1.73c-1.16.42-2.47.62-3.92.62v-.01c-1.53 0-2.96-.3-4.28-.9a8.03 8.03 0 0 1-3.17-2.48 5.63 5.63 0 0 1-1.18-3.48 5.88 5.88 0 0 1 1.12-3.57 7.91 7.91 0 0 1 3.1-2.38c1.29-.58 2.69-.86 4.23-.86zm29.51-2.86.5 4.43-.25-.38a9.8 9.8 0 0 1 4.04-3.53c1.9-.88 3.99-1.32 6.09-1.28 1.45 0 2.73.17 3.85.52s2.03.86 2.74 1.53a4.23 4.23 0 0 1 1.42 2.38l-.3.14a9.84 9.84 0 0 1 4.1-3.34 13.14 13.14 0 0 1 5.59-1.23c2.52 0 4.5.55 5.96 1.66a5.17 5.17 0 0 1 2.3 4.25v15.15h-5.78V204.8a3.8 3.8 0 0 0-1-2.53c-.57-.7-1.6-1.08-3.1-1.14-1.5 0-2.84.35-4.04 1.05a7.82 7.82 0 0 0-2.73 2.7 7.07 7.07 0 0 0-1.06 3.54v9.97h-5.78v-13.61a3.67 3.67 0 0 0-1.05-2.53c-.62-.7-1.68-1.08-3.17-1.14a7.67 7.67 0 0 0-6.77 3.76 7.21 7.21 0 0 0-.94 3.58v9.9h-5.78v-20.28Z"/>
  <path fill="none" stroke="#fff" d="M20 182.56h300"/>
</svg>
