<svg xmlns="http://www.w3.org/2000/svg" xml:space="preserve" viewBox="0 0 320 100">
  <g fill="#4e4840">
    <path d="M274.5 56.5h-.94v-1.58h.99c.52 0 1.12.1 1.12.77 0 .7-.6.82-1.16.82m.74.35c.7-.07 1.2-.52 1.2-1.24a1.2 1.2 0 0 0-.32-.8c-.35-.43-.88-.46-1.37-.46h-1.97v5.18h.77v-2.4h.42c1.06 0 1.2.36 1.34 1.27.07.35.14.78.28 1.13h.92a4.75 4.76 0 0 1-.36-1.16c-.1-.7-.1-1.2-.91-1.48"/>
    <path d="M274.44 60.73c-5.04 0-5.04-7.57 0-7.57a3.8 3.8 0 0 1 3.87 3.77 3.8 3.8 0 0 1-3.87 3.8m0-7.92a4.2 4.2 0 0 0-4.22 4.16 4.22 4.22 0 0 0 4.33 4.15c5.53-.04 5.46-8.36-.07-8.31M152 35.8a5.72 5.72 0 0 0-3.31.5l-10.41 16.93s-7.53-12.19-8-12.86c-.76-1.16-2.98-1.7-4.35-1.7a4.5 4.5 0 0 0-3.52 1.74l-9.28 13.03-8.52-15.18s-1.75-1.06-3.23-.6c-1.62.53-2.3 2.04-2.3 2.04l10.99 19.23h5.7l10.44-14.3 9.15 14.3h6.5l12.84-21.48s-1.1-1.34-2.7-1.66m31.65 18.88s-13.5.14-15.68 0c-1.62-.14-3.87-1.09-3.9-2.95-.04-2.65 4.88-3.3 9.84-3.18 3.37.14 6.7.88 9.8 2.19zm5.98-12.57c0-2.47-3-4.12-4.22-4.54-12.3-4.34-23.7-.79-23.7-.79s-1.27.96-.85 2.76c.2.8.7 1.5 1.37 1.97 0 0 6.8-1.52 11.57-1.34 3.54-.1 7.02.87 10 2.78v3.39s-4.3-2.11-9.5-2.11c-8.37 0-16 1.05-15.83 8.2.1 5.39 5.27 6.98 9 7.05 4.82.1 21.99 0 22.16 0 0-.18-.07-10.19 0-17.37zm36.94.5a18.17 18.17 0 0 0-11.12-4.06c-3.54-.3-7.1 0-10.55.88v-1.4s-1.1-.75-2.74-.75c-1.66 0-3.42.89-3.42.89l-.03 21.66h6.08l.1-15.01s4.65-1.69 10.32-1.2c4.32.4 7.66 2.82 7.73 5.6v10.61h5.98s.1-6.91.07-10.15c-.1-3.38-.63-5.42-2.42-7.05m29.54 14.03h-10.9c-2.4-.17-4.3-.6-4.3-2.65 0-1.93 5.04-1.75 7.85-1.65 3.77.1 7.39 1.76 7.39 1.76v2.54zm4.26-9.16c-.21-2-.21-2.82-2-3.77-9.3-4.72-18.8-2.36-18.96-2.36-1.13.66-.95 3.52.52 4.23.5-.04 3.45-.7 8.1-.42 2.79.12 5.5.92 7.9 2.35l.15 2.3s-3.03-1.52-8.16-1.66c-5.8-.15-11.75.95-11.75 5.84 0 5.04 3.4 6.7 7.98 6.81 4.58.1 16.22 0 16.22 0s.07-12.48 0-13.32z"/>
    <path d="M3.25 14.42 9.9 3.38l6.85 11.04h2.48C19.2 14.33 10.77.95 10.77.95A1.03 1.03 0 0 0 9.9.5c-.36 0-.69.18-.87.47C9.03.96.8 14.28.8 14.42Z" mask="url(#b)" transform="matrix(3.51752 0 0 3.52308 31.1 8.24)"/>
    <path d="m12.2 58.83.96-.5c10.9-5.56 67.47-33.64 153.43-33.1 90.93.63 128.82 25.36 139.82 32.83l.88.63c1.83 1.41 3.6.07 2.22-1.23a6.68 6.7 0 0 0-.88-.8C296.8 46.49 256.43 19.09 166 19.29c-81.2.17-138.42 28.84-153.97 37.58l-1.05.64c-2.11 1.16-.4 2.25 1.23 1.33M66.4 89.99l-9.32-13.27h4.46l6.33 10.25-2.31-.07 5.8-11.26h4.22L66.6 89.99zm23.78-13.27h3.77l-.01 13.27h-3.78zm27.6 13.2a12.73 12.75 0 0 1-4.94-.87 7.74 7.75 0 0 1-3.2-2.42 6 6.01 0 0 1-1.1-3.56c0-1.27.42-2.42 1.25-3.46a8.8 8.8 0 0 1 3.37-2.49 11.5 11.52 0 0 1 4.7-.93c2.22 0 4.06.5 5.52 1.5a7.32 7.33 0 0 1 2.96 4.1l-13.82 3.74-.9-1.7 11.36-3.2-.82.41a4.4 4.4 0 0 0-1.62-1.77 5.14 5.15 0 0 0-2.96-.78c-1.02 0-1.94.2-2.75.6a4.6 4.6 0 0 0-1.91 1.55 3.89 3.9 0 0 0-.7 2.27 3.98 3.99 0 0 0 .74 2.38 5.1 5.1 0 0 0 1.98 1.58c.87.38 1.84.56 2.93.56.73 0 1.43-.1 2.1-.3a9.52 9.52 0 0 0 1.95-.82l1.74 2.15c-.83.44-1.78.79-2.84 1.06a11.95 11.96 0 0 1-3.04.4zm27.85-13.14h9.51v2.27h-5.74v10.94h-3.77V79.05h-4.7v-2.28zm27.47-.06.32 3.14-.16-.5a5.58 5.58 0 0 1 2.64-2.27 9.7 9.7 0 0 1 4.21-.87c1.6 0 2.9.36 3.9 1.08.96.6 1.56 1.65 1.58 2.78l.04 9.85h-3.8l-.05-8.81c-.01-.67-.3-1.3-.82-1.72-.48-.46-1.25-.68-2.3-.68-.92-.02-1.83.2-2.65.62-.76.4-1.4.98-1.86 1.71a4.84 4.84 0 0 0-.65 2.52l.04 6.36h-3.77l-.04-13.21Zm35.76-.53c-1.49-.02-2.97.26-4.34.83a7.53 7.53 0 0 0-3.12 2.43 5.98 5.98 0 0 0-1.18 3.71 6.2 6.2 0 0 0 1.1 3.71 7.18 7.18 0 0 0 3.04 2.28c1.3.52 2.73.77 4.3.77.97 0 1.85-.1 2.63-.3a10.2 10.2 0 0 0 3.53-1.81l.33-.3v2.48h3.77V76.7h-3.49l-.27 2.06a7.15 7.15 0 0 0-2.32-1.75 8.64 8.64 0 0 0-3.98-.83zm.7 2.4c.85-.02 1.7.12 2.5.4.72.23 1.38.6 1.95 1.1.52.42.91.98 1.14 1.6v2.54a3.87 3.87 0 0 1-1.06 1.77c-.53.5-1.17.89-1.86 1.12a7.4 7.4 0 0 1-2.56.4c-1 0-1.93-.2-2.8-.59a5.24 5.24 0 0 1-2.06-1.62 3.68 3.68 0 0 1-.77-2.27c-.02-.84.24-1.66.73-2.34a5.16 5.16 0 0 1 2.02-1.55 6.62 6.62 0 0 1 2.76-.57zm27.31-1.87.33 2.9-.16-.26a6.4 6.4 0 0 1 2.63-2.3 9.03 9.03 0 0 1 3.98-.84c.95 0 1.78.1 2.51.34.73.23 1.33.56 1.8 1 .47.4.8.95.92 1.55l-.2.1a6.43 6.43 0 0 1 2.68-2.19 8.57 8.57 0 0 1 3.65-.8 6.3 6.3 0 0 1 3.89 1.08 3.38 3.38 0 0 1 1.5 2.78v9.9h-3.77v-8.86a2.5 2.5 0 0 0-.66-1.66c-.37-.46-1.04-.7-2.02-.74-.97 0-1.85.22-2.64.68a5.1 5.1 0 0 0-2.47 4.08V90h-3.77v-8.9a2.4 2.4 0 0 0-.69-1.65c-.4-.46-1.1-.7-2.07-.75a5 5 0 0 0-4.42 2.46c-.4.71-.61 1.52-.61 2.34v6.48h-3.77V76.72Z"/>
  </g>
</svg>
